<svg preserveAspectRatio="xMidYMid meet" data-bbox="47.1 74 105.701 62.3" viewBox="47.1 74 105.701 62.3" height="200" width="200" xmlns="http://www.w3.org/2000/svg" data-type="color" role="presentation" aria-hidden="true" aria-label=""><defs><style>#comp-k8x4ntqz svg [data-color="1"] {fill: #FF7648;}
#comp-k8x4ntqz svg [data-color="2"] {fill: #FEC178;}</style></defs>
    <g>
        <path d="M119.1 92.2H80.9c-.5 6.4-4.5 11.8-10.1 14.3v29.8h7.9V112c0-2.4 1.9-4.3 4.3-4.3s4.3 1.9 4.3 4.3v24.2h8.4V112c0-2.4 1.9-4.3 4.3-4.3s4.3 1.9 4.3 4.3v24.2h8.7V112c0-2.4 1.9-4.3 4.3-4.3s4.3 1.9 4.3 4.3v24.2h7.9v-29.8c-5.9-2.3-9.9-7.8-10.4-14.2z" fill="#ff7648" data-color="1"></path>
        <path d="M137.2 74.1l-8-.1H64c-9.3 0-16.9 7.6-16.9 16.9 0 9.3 7.6 16.9 16.9 16.9 2.4 0 4.7-.5 6.7-1.4 5.6-2.4 9.7-7.9 10.1-14.3h38.3c.5 6.4 4.5 11.8 10.1 14.3 2.1.9 4.3 1.4 6.7 1.4 9.3 0 16.9-7.6 16.9-16.9.1-8.9-6.8-16.2-15.6-16.8zM64 97c-3.3 0-6-2.7-6-6s2.7-6 6-6 6 2.7 6 6-2.7 6-6 6zm72 0c-3.3 0-6-2.7-6-6s2.7-6 6-6 6 2.7 6 6-2.7 6-6 6z" fill="#fec178" data-color="2"></path>
        <path fill="#ff7648" d="M70 91a6 6 0 11-12 0 6 6 0 0112 0z" data-color="1"></path>
        <path fill="#ff7648" d="M142 91a6 6 0 11-12 0 6 6 0 0112 0z" data-color="1"></path>
        <path d="M82.9 107.8c-2.4 0-4.3 1.9-4.3 4.3v24.2h8.6V112c0-2.3-1.9-4.2-4.3-4.2z" fill="#fec178" data-color="2"></path>
        <path d="M117.1 107.8c-2.4 0-4.3 1.9-4.3 4.3v24.2h8.6V112c0-2.3-1.9-4.2-4.3-4.2z" fill="#fec178" data-color="2"></path>
        <path d="M99.8 107.8c-2.4 0-4.3 1.9-4.3 4.3v24.2h8.6V112c0-2.3-1.9-4.2-4.3-4.2z" fill="#fec178" data-color="2"></path>
    </g>
</svg>